HIERARCHY
ROOT Hips
{
	OFFSET 0.00000 0.00000 0.00000
	CHANNELS 6 Xposition Yposition Zposition Yrotation Zrotation Xrotation 
	JOINT Lumbar
	{
		OFFSET 0 0 0
		CHANNELS 3 Zrotation Xrotation Yrotation
		JOINT Neck
		{
			OFFSET 0.00 0.2701 0.00
			CHANNELS 3 Zrotation Xrotation Yrotation
			End Site
			{
				OFFSET 0.00 0.1379 0.00
			}
		}
		JOINT RightShoulder
		{
			OFFSET 0.0119 0.2289 0.1181
			CHANNELS 3 Zrotation Xrotation Yrotation
			JOINT RightElbow
			{
				OFFSET 0.00 -0.1475 0.00
				CHANNELS 2 Zrotation Yrotation
				JOINT RightWrist
				{
					OFFSET 0.00 -0.1605 0.00
					CHANNELS 2 Zrotation Xrotation
					End Site
					{
						OFFSET 0.0040 -0.1068 0.0006
					}
				}
			}
		}
		JOINT LeftShoulder
		{
			OFFSET 0.0119 0.2289 -0.1181
			CHANNELS 3 Zrotation Xrotation Yrotation
			JOINT LeftElbow
			{
				OFFSET 0.00 -0.1475 0.00
				CHANNELS 2 Zrotation Yrotation
				JOINT LeftWrist
				{
					OFFSET 0.00 -0.1605 0.00
					CHANNELS 2 Zrotation Xrotation
					End Site
					{
						OFFSET 0.0040 -0.1068 -0.0006
					}
				}
			}
		}
	}
	JOINT RightHip
	{
		OFFSET 0.0316 -0.0424 0.0458
		CHANNELS 3 Zrotation Xrotation Yrotation
		JOINT RightKnee
		{
			OFFSET 0.00 -0.2438 0.00
			CHANNELS 1 Zrotation
			JOINT RightAnkle
			{
				OFFSET 0.00 -0.2449 0.00
				CHANNELS 3 Zrotation Xrotation Yrotation
				End Site
				{
					OFFSET 0.1237 -0.0542 0.0051
				}
			}
		}
	}
	JOINT LeftHip
	{
		OFFSET 0.0316 -0.0424 -0.0458
		CHANNELS 3 Zrotation Xrotation Yrotation
		JOINT LeftKnee
		{
			OFFSET 0.00 -0.2438 0.00
			CHANNELS 1 Zrotation
			JOINT LeftAnkle
			{
				OFFSET 0.00 -0.2449 0.00
				CHANNELS 3 Zrotation Xrotation Yrotation
				End Site
				{
					OFFSET 0.1237 -0.0542 -0.0051
				}
			}
		}
	}
}
MOTION
Frames: 13
Frame Time: 0.02
-0.09874 0.0158 0.78815 724.25131 -28.34747 -6.21337 35.65352 0.72696 -2.2311 -20.696 14.48548 -0.82708 16.82675 -17.96978 28.5055 137.62438 -0.48853 35.54941 -22.95783 -29.09357 14.78702 -2.99777 51.37617 -61.81089 -19.90843 -0.30509 46.61501 7.53594 -12.25481 -25.51421 -8.30782 -3.06771 -2.30388 36.63825 20.87723 -9.18713 -44.31122 -11.57753 -0.67046 0.33841
-0.09404 0.01657 0.79076 724.49704 -28.25844 -6.12287 35.554 0.82373 -1.78521 -20.74787 14.37996 -0.82709 17.16099 -18.41582 28.43711 137.62464 -0.67774 34.51726 -22.99762 -29.39967 14.29678 -1.93851 51.32151 -58.06364 -20.6931 -0.91653 45.47667 7.80402 -12.72485 -24.61099 -8.26199 -3.01739 -2.27288 38.43569 21.08441 -9.56168 -46.97547 -11.9904 -0.7029 0.33132
-0.08975 0.01726 0.79306 724.67011 -28.12098 -6.01643 35.38492 0.90937 -1.25461 -20.86509 14.30408 -0.82709 17.54553 -18.93151 28.39778 137.62423 -0.5942 33.05091 -22.97981 -29.70016 13.70484 -0.69755 51.38101 -53.4961 -21.61949 -1.66725 44.30546 8.03785 -13.22265 -23.66599 -8.19384 -2.94483 -2.22907 40.19519 21.25102 -9.62461 -49.49434 -12.31184 -0.68557 0.3498
-0.08529 0.01799 0.79547 724.87475 -28.01531 -5.91431 35.25655 0.99882 -0.76833 -20.95099 14.20157 -0.8271 17.96838 -19.38372 28.36929 137.62438 -0.12877 31.45388 -22.88268 -30.00264 13.18186 0.4122 51.38161 -49.57172 -22.40469 -2.31538 43.16423 8.28376 -13.68432 -22.74116 -8.07685 -2.89036 -2.19213 41.94973 21.40514 -9.8599 -51.9951 -12.65983 -0.68057 0.36209
-0.08075 0.01872 0.79801 725.08395 -27.86989 -5.82436 35.09018 1.09426 -0.25345 -21.04216 14.15331 -0.8271 18.13827 -19.97257 28.24264 137.62547 -1.71409 31.18219 -23.21486 -30.30714 12.56499 1.72252 51.41503 -44.52505 -23.50832 -3.12654 41.95557 8.54488 -14.2456 -21.79873 -8.19234 -2.80321 -2.15028 43.82034 21.68188 -9.98653 -54.88496 -13.07275 -0.71621 0.35294
-0.07648 0.01943 0.8002 725.2677 -27.79504 -5.70571 34.9859 1.17466 0.21951 -21.13837 13.99913 -0.82711 18.83772 -20.29402 28.32333 137.62194 0.93102 28.12297 -22.6592 -30.60508 12.11776 2.6628 51.40493 -41.59412 -23.99009 -3.63527 40.88176 8.76528 -14.60946 -20.88963 -7.83917 -2.77683 -2.11574 45.42832 21.7005 -10.25022 -56.90504 -13.32991 -0.65885 0.39271
-0.0728 0.02012 0.80156 725.39042 -27.92881 -5.50732 35.07499 1.21209 0.56729 -21.2339 13.5512 -0.82712 21.07676 -19.84103 29.00317 137.62764 16.10471 16.80831 -19.49331 -30.9003 12.1757 2.50263 51.26026 -44.95228 -22.65071 -3.2378 40.18061 8.89046 -14.37569 -20.06187 -6.01395 -2.94429 -2.10538 46.35994 20.96803 -11.04626 -56.70314 -13.16055 -0.337 0.57172
-0.06937 0.02079 0.80258 725.49196 -28.13485 -5.28154 35.22813 1.23542 0.86729 -21.33229 12.9951 -0.82713 23.83055 -19.11955 29.88422 137.62491 35.36031 2.82395 -15.46749 -31.18668 12.40556 1.97031 51.0655 -50.42371 -20.69317 -2.53781 39.61863 8.97436 -13.94928 -19.27501 -3.74941 -3.17035 -2.1028 47.01809 19.98654 -11.96742 -55.60044 -12.84309 0.06632 0.79371
-0.06584 0.02145 0.80374 725.6086 -28.30618 -5.07092 35.34862 1.26776 1.18153 -21.42857 12.48442 -0.82714 26.29049 -18.53281 30.6512 137.61137 52.14195 -9.49873 -11.94954 -31.46817 12.54868 1.63114 50.8839 -54.76523 -19.06434 -2.00073 38.99791 9.07122 -13.64153 -18.48399 -1.80966 -3.35568 -2.09608 47.77342 19.15136 -12.78775 -54.81357 -12.60203 0.42781 0.99353
-0.0623 0.02219 0.80497 725.69863 -28.48318 -4.84762 35.48131 1.28867 1.53094 -21.53021 11.9892 -0.82715 29.00565 -17.89468 31.51527 137.65847 71.5271 -23.71672 -7.9382 -31.7872 12.72434 1.19726 50.74493 -59.78892 -17.23986 -1.3619 38.35522 9.19079 -13.20715 -17.62833 0.64821 -3.59809 -2.09115 48.64403 18.17537 -13.81281 -54.41976 -12.3091 0.83879 1.21942
-0.05882 0.02275 0.80595 725.84119 -28.66684 -4.64531 35.60512 1.33029 1.79387 -21.62092 11.43736 -0.82716 31.31015 -17.29912 32.22382 137.57871 86.4791 -34.63166 -4.74746 -32.02579 12.87473 0.86944 50.50622 -63.91037 -15.67284 -0.86044 37.79397 9.25443 -12.98578 -16.92019 2.14472 -3.73792 -2.08487 49.20772 17.43334 -14.40788 -52.99163 -12.10321 1.13091 1.38329
-0.05546 0.02281 0.80636 726.12412 -28.84567 -4.5003 35.68549 1.43169 1.83565 -21.67697 10.74172 -0.82717 32.35958 -16.8844 32.45939 137.13841 87.9814 -35.6274 -4.06503 -32.04661 12.91064 0.92871 49.98337 -64.97512 -14.97957 -0.81948 37.40514 9.16755 -13.44026 -16.58824 0.75937 -3.56202 -2.06989 49.01209 17.40435 -14.11619 -48.96427 -12.0564 1.38378 1.52277
-0.05216 0.02268 0.80651 726.46278 -29.02993 -4.37893 35.75557 1.55465 1.79056 -21.72223 9.99553 -0.82718 32.97656 -16.52184 32.53021 136.5731 84.91828 -33.23101 -4.23273 -31.98647 12.91625 1.10598 49.36561 -65.07198 -14.56393 -0.92521 37.097 9.02705 -14.10879 -16.40762 -1.587 -3.28422 -2.05385 48.51506 17.61801 -13.33541 -43.92643 -12.1201 1.46621 1.57369
